# xmcd CD database file
#
# Track frame offsets:
#	150
#	11316
#	23350
#	35522
#	50379
#	62455
#	73141
#	85732
#	97868
#	111302
#	125502
#	136289
#
# Disc length: 1960 seconds
#
# Revision: 4
# Processed by: cddbd v1.5.2PL0 Copyright (c) Steve Scherf et al.
# Submitted via: CDex 1.70beta2
#
DISCID=8f07a60c
DTITLE=Marvin Gaye - In The Groove - I Heard It Through The Grapevine - In The Groove
DYEAR=1967
DGENRE=Soul
TTITLE0=You (Hunter-Goga-Bowen)
TTITLE1=Tear It Down (Ashford-Simpson)
TTITLE2=Chained (F.Wilson)
TTITLE3=I Heard It Through The Grapevine (Whitfield-Strong)
TTITLE4=At Last (M.Gaye-Stover)
TTITLE5=Some Kind Of Wonderful (Goffin-King)
TTITLE6=Loving You Is Sweeter Than Ever (Hunter-Wonder)
TTITLE7=Change What You Can (M.Gaye-Stover-Fuqua)
TTITLE8=It's Love I Need (Hunter-Bowden)
TTITLE9=Every Now And Then (Wilson-Holland)
TTITLE10=You're What's Happening In The World Today (H. and R.Gordy-Story)
TTITLE11=There Goes My Baby (Nelson-Patterson-Treadwell)
EXTD=YEAR: 1967
EXTT0=
EXTT1=
EXTT2=
EXTT3=
EXTT4=
EXTT5=
EXTT6=
EXTT7=
EXTT8=
EXTT9=
EXTT10=
EXTT11=
PLAYORDER=
